<?xml version="1.0" encoding="UTF-8" standalone="no"?>
<!DOCTYPE svg PUBLIC "-//W3C//DTD SVG 1.1//EN"
 "http://www.w3.org/Graphics/SVG/1.1/DTD/svg11.dtd">
<!-- Generated by graphviz version 2.47.3 (20210619.1520)
 -->
<!-- Title: DAG Pages: 1 -->
<svg width="458pt" height="927pt"
 viewBox="0.00 0.00 458.00 926.82" xmlns="http://www.w3.org/2000/svg" xmlns:xlink="http://www.w3.org/1999/xlink">
<g id="graph0" class="graph" transform="scale(1 1) rotate(0) translate(4 922.82)">
<title>DAG</title>
<polygon fill="white" stroke="transparent" points="-4,4 -4,-922.82 454,-922.82 454,4 -4,4"/>
<!-- root -->
<g id="node1" class="node">
<title>root</title>
<ellipse fill="#63d297" stroke="#63d297" cx="27" cy="-427.82" rx="27" ry="18"/>
<text text-anchor="middle" x="27" y="-424.12" font-family="Times,serif" font-size="14.00">root</text>
</g>
<!-- N0 -->
<g id="node2" class="node">
<title>N0</title>
<ellipse fill="#63d297" stroke="#63d297" cx="159" cy="-753.82" rx="27" ry="18"/>
<text text-anchor="middle" x="159" y="-750.12" font-family="Times,serif" font-size="14.00">N0</text>
</g>
<!-- root&#45;&gt;N0 -->
<g id="edge1" class="edge">
<title>root&#45;&gt;N0</title>
<path fill="none" stroke="black" d="M34.99,-445.35C56.42,-499.08 121.29,-661.76 147.17,-726.67"/>
<polygon fill="black" stroke="black" points="144.02,-728.22 150.98,-736.21 150.52,-725.63 144.02,-728.22"/>
<text text-anchor="middle" x="93" y="-642.62" font-family="Times,serif" font-size="14.00">(n4)p7</text>
</g>
<!-- N1 -->
<g id="node3" class="node">
<title>N1</title>
<ellipse fill="#63d297" stroke="#63d297" cx="159" cy="-400.82" rx="27" ry="18"/>
<text text-anchor="middle" x="159" y="-397.12" font-family="Times,serif" font-size="14.00">N1</text>
</g>
<!-- root&#45;&gt;N1 -->
<g id="edge2" class="edge">
<title>root&#45;&gt;N1</title>
<path fill="none" stroke="black" d="M51.56,-419.57C58.12,-417.48 65.29,-415.39 72,-413.82 88.25,-410.04 106.49,-407.1 121.98,-404.98"/>
<polygon fill="black" stroke="black" points="122.75,-408.41 132.21,-403.64 121.84,-401.47 122.75,-408.41"/>
<text text-anchor="middle" x="93" y="-417.62" font-family="Times,serif" font-size="14.00">(n5)p1</text>
</g>
<!-- N2 -->
<g id="node4" class="node">
<title>N2</title>
<ellipse fill="#63d297" stroke="#63d297" cx="159" cy="-107.82" rx="27" ry="18"/>
<text text-anchor="middle" x="159" y="-104.12" font-family="Times,serif" font-size="14.00">N2</text>
</g>
<!-- root&#45;&gt;N2 -->
<g id="edge3" class="edge">
<title>root&#45;&gt;N2</title>
<path fill="none" stroke="black" d="M34.99,-410.62C56.42,-357.88 121.29,-198.19 147.17,-134.48"/>
<polygon fill="black" stroke="black" points="150.45,-135.7 150.98,-125.11 143.97,-133.06 150.45,-135.7"/>
<text text-anchor="middle" x="93" y="-318.62" font-family="Times,serif" font-size="14.00">(n8)p8</text>
</g>
<!-- N3 -->
<g id="node5" class="node">
<title>N3</title>
<ellipse fill="#63d297" stroke="#63d297" cx="159" cy="-335.82" rx="27" ry="18"/>
<text text-anchor="middle" x="159" y="-332.12" font-family="Times,serif" font-size="14.00">N3</text>
</g>
<!-- root&#45;&gt;N3 -->
<g id="edge4" class="edge">
<title>root&#45;&gt;N3</title>
<path fill="none" stroke="black" d="M42.37,-412.94C50.65,-404.76 61.47,-394.71 72,-386.82 89.7,-373.57 111.09,-360.88 128.1,-351.47"/>
<polygon fill="black" stroke="black" points="129.94,-354.45 137.05,-346.6 126.6,-348.3 129.94,-354.45"/>
<text text-anchor="middle" x="93" y="-390.62" font-family="Times,serif" font-size="14.00">(n15)t1</text>
</g>
<!-- N4 -->
<g id="node6" class="node">
<title>N4</title>
<ellipse fill="#63d297" stroke="#63d297" cx="159" cy="-525.82" rx="27" ry="18"/>
<text text-anchor="middle" x="159" y="-522.12" font-family="Times,serif" font-size="14.00">N4</text>
</g>
<!-- root&#45;&gt;N4 -->
<g id="edge5" class="edge">
<title>root&#45;&gt;N4</title>
<path fill="none" stroke="black" d="M44.52,-441.74C52.7,-448.52 62.77,-456.73 72,-463.82 91.51,-478.82 114.1,-495.06 131.23,-507.16"/>
<polygon fill="black" stroke="black" points="129.45,-510.19 139.64,-513.08 133.48,-504.46 129.45,-510.19"/>
<text text-anchor="middle" x="93" y="-498.62" font-family="Times,serif" font-size="14.00">(n10)t2</text>
</g>
<!-- N5 -->
<g id="node7" class="node">
<title>N5</title>
<ellipse fill="#63d297" stroke="#63d297" cx="159" cy="-454.82" rx="27" ry="18"/>
<text text-anchor="middle" x="159" y="-451.12" font-family="Times,serif" font-size="14.00">N5</text>
</g>
<!-- root&#45;&gt;N5 -->
<g id="edge6" class="edge">
<title>root&#45;&gt;N5</title>
<path fill="none" stroke="black" d="M53.07,-433.03C72.94,-437.16 100.94,-442.97 123.02,-447.56"/>
<polygon fill="black" stroke="black" points="122.51,-451.03 133.01,-449.63 123.93,-444.17 122.51,-451.03"/>
<text text-anchor="middle" x="93" y="-448.62" font-family="Times,serif" font-size="14.00">(n1)p2</text>
</g>
<!-- N6 -->
<g id="node8" class="node">
<title>N6</title>
<ellipse fill="#63d297" stroke="#63d297" cx="291" cy="-797.82" rx="27" ry="18"/>
<text text-anchor="middle" x="291" y="-794.12" font-family="Times,serif" font-size="14.00">N6</text>
</g>
<!-- N0&#45;&gt;N6 -->
<g id="edge7" class="edge">
<title>N0&#45;&gt;N6</title>
<path fill="none" stroke="black" d="M168.4,-770.71C175.82,-783.52 187.94,-800.2 204,-807.82 220.53,-815.68 240.78,-813.8 257.48,-809.67"/>
<polygon fill="black" stroke="black" points="258.69,-812.97 267.36,-806.88 256.78,-806.23 258.69,-812.97"/>
<text text-anchor="middle" x="225" y="-816.62" font-family="Times,serif" font-size="14.00">(n1)p2</text>
</g>
<!-- N7 -->
<g id="node9" class="node">
<title>N7</title>
<ellipse fill="#63d297" stroke="#63d297" cx="291" cy="-879.82" rx="27" ry="18"/>
<text text-anchor="middle" x="291" y="-876.12" font-family="Times,serif" font-size="14.00">N7</text>
</g>
<!-- N0&#45;&gt;N7 -->
<g id="edge8" class="edge">
<title>N0&#45;&gt;N7</title>
<path fill="none" stroke="black" d="M166.62,-771.42C173.75,-788.52 186.48,-814.38 204,-831.82 219.23,-846.99 240.25,-858.84 257.69,-866.97"/>
<polygon fill="black" stroke="black" points="256.39,-870.22 266.95,-871.1 259.24,-863.83 256.39,-870.22"/>
<text text-anchor="middle" x="225" y="-864.62" font-family="Times,serif" font-size="14.00">(n10)t2</text>
</g>
<!-- N8 -->
<g id="node10" class="node">
<title>N8</title>
<ellipse fill="#63d297" stroke="#63d297" cx="291" cy="-617.82" rx="27" ry="18"/>
<text text-anchor="middle" x="291" y="-614.12" font-family="Times,serif" font-size="14.00">N8</text>
</g>
<!-- N0&#45;&gt;N8 -->
<g id="edge9" class="edge">
<title>N0&#45;&gt;N8</title>
<path fill="none" stroke="black" d="M166.88,-736.57C174.14,-720.11 186.89,-695.44 204,-678.82 219.27,-664 228.52,-667.96 246,-655.82 253.11,-650.89 260.4,-644.99 266.94,-639.34"/>
<polygon fill="black" stroke="black" points="269.62,-641.65 274.77,-632.39 264.97,-636.41 269.62,-641.65"/>
<text text-anchor="middle" x="225" y="-682.62" font-family="Times,serif" font-size="14.00">(n15)t1</text>
</g>
<!-- N9 -->
<g id="node11" class="node">
<title>N9</title>
<ellipse fill="#63d297" stroke="#63d297" cx="291" cy="-693.82" rx="27" ry="18"/>
<text text-anchor="middle" x="291" y="-690.12" font-family="Times,serif" font-size="14.00">N9</text>
</g>
<!-- N0&#45;&gt;N9 -->
<g id="edge10" class="edge">
<title>N0&#45;&gt;N9</title>
<path fill="none" stroke="black" d="M185.57,-750.45C203.29,-747.38 227.01,-741.74 246,-731.82 253.97,-727.66 261.73,-721.79 268.45,-715.9"/>
<polygon fill="black" stroke="black" points="270.85,-718.45 275.82,-709.09 266.1,-713.31 270.85,-718.45"/>
<text text-anchor="middle" x="225" y="-749.62" font-family="Times,serif" font-size="14.00">(n5)p1</text>
</g>
<!-- N1&#45;&gt;N9 -->
<g id="edge13" class="edge">
<title>N1&#45;&gt;N9</title>
<path fill="none" stroke="black" d="M176.59,-414.58C180.28,-418.47 183.75,-422.98 186,-427.82 218.91,-498.75 166.76,-534.07 204,-602.82 215.44,-623.94 229.22,-619.65 246,-636.82 255.69,-646.74 265.25,-658.77 272.96,-669.21"/>
<polygon fill="black" stroke="black" points="270.28,-671.48 278.98,-677.53 275.96,-667.38 270.28,-671.48"/>
<text text-anchor="middle" x="225" y="-640.62" font-family="Times,serif" font-size="14.00">(n4)p7</text>
</g>
<!-- N10 -->
<g id="node12" class="node">
<title>N10</title>
<ellipse fill="#63d297" stroke="#63d297" cx="291" cy="-122.82" rx="27" ry="18"/>
<text text-anchor="middle" x="291" y="-119.12" font-family="Times,serif" font-size="14.00">N10</text>
</g>
<!-- N1&#45;&gt;N10 -->
<g id="edge11" class="edge">
<title>N1&#45;&gt;N10</title>
<path fill="none" stroke="black" d="M173.38,-385.19C178.2,-378.69 183.14,-370.8 186,-362.82 201.42,-319.77 176.84,-194.62 204,-157.82 215.82,-141.81 236.24,-133.11 254.22,-128.38"/>
<polygon fill="black" stroke="black" points="255.2,-131.75 264.16,-126.09 253.63,-124.92 255.2,-131.75"/>
<text text-anchor="middle" x="225" y="-161.62" font-family="Times,serif" font-size="14.00">(n8)p8</text>
</g>
<!-- N11 -->
<g id="node13" class="node">
<title>N11</title>
<ellipse fill="#63d297" stroke="#63d297" cx="291" cy="-194.82" rx="27" ry="18"/>
<text text-anchor="middle" x="291" y="-191.12" font-family="Times,serif" font-size="14.00">N11</text>
</g>
<!-- N1&#45;&gt;N11 -->
<g id="edge12" class="edge">
<title>N1&#45;&gt;N11</title>
<path fill="none" stroke="black" d="M173.21,-385.13C178.01,-378.62 182.98,-370.74 186,-362.82 208.33,-304.2 163.97,-271.13 204,-222.82 210.76,-214.67 234.28,-207.33 255.02,-202.22"/>
<polygon fill="black" stroke="black" points="255.96,-205.59 264.89,-199.89 254.36,-198.78 255.96,-205.59"/>
<text text-anchor="middle" x="225" y="-226.62" font-family="Times,serif" font-size="14.00">(n15)t1</text>
</g>
<!-- N12 -->
<g id="node14" class="node">
<title>N12</title>
<ellipse fill="#63d297" stroke="#63d297" cx="291" cy="-476.82" rx="27" ry="18"/>
<text text-anchor="middle" x="291" y="-473.12" font-family="Times,serif" font-size="14.00">N12</text>
</g>
<!-- N1&#45;&gt;N12 -->
<g id="edge14" class="edge">
<title>N1&#45;&gt;N12</title>
<path fill="none" stroke="black" d="M185.91,-399.15C204.01,-399.18 228.05,-401.73 246,-412.82 260.12,-421.55 270.84,-436.69 278.16,-450.05"/>
<polygon fill="black" stroke="black" points="275.23,-452.02 282.89,-459.35 281.47,-448.85 275.23,-452.02"/>
<text text-anchor="middle" x="225" y="-416.62" font-family="Times,serif" font-size="14.00">(n10)t2</text>
</g>
<!-- N2&#45;&gt;N10 -->
<g id="edge17" class="edge">
<title>N2&#45;&gt;N10</title>
<path fill="none" stroke="black" d="M164.75,-90.16C170.65,-72.12 182.65,-45.05 204,-32.82 220.2,-23.55 230.69,-22.14 246,-32.82 265.02,-46.1 253.73,-61.02 264,-81.82 266.68,-87.25 269.9,-92.85 273.14,-98.11"/>
<polygon fill="black" stroke="black" points="270.2,-100 278.54,-106.54 276.09,-96.23 270.2,-100"/>
<text text-anchor="middle" x="225" y="-36.62" font-family="Times,serif" font-size="14.00">(n5)p1</text>
</g>
<!-- N13 -->
<g id="node15" class="node">
<title>N13</title>
<ellipse fill="#63d297" stroke="#63d297" cx="291" cy="-54.82" rx="27" ry="18"/>
<text text-anchor="middle" x="291" y="-51.12" font-family="Times,serif" font-size="14.00">N13</text>
</g>
<!-- N2&#45;&gt;N13 -->
<g id="edge15" class="edge">
<title>N2&#45;&gt;N13</title>
<path fill="none" stroke="black" d="M161.96,-89.8C165.6,-66.09 175.84,-25.27 204,-6.82 219.61,3.41 228.91,0.69 246,-6.82 257.09,-11.7 266.61,-20.91 273.93,-29.97"/>
<polygon fill="black" stroke="black" points="271.22,-32.2 280.01,-38.11 276.83,-28.01 271.22,-32.2"/>
<text text-anchor="middle" x="225" y="-10.62" font-family="Times,serif" font-size="14.00">(n15)t1</text>
</g>
<!-- N14 -->
<g id="node16" class="node">
<title>N14</title>
<ellipse fill="#63d297" stroke="#63d297" cx="291" cy="-270.82" rx="27" ry="18"/>
<text text-anchor="middle" x="291" y="-267.12" font-family="Times,serif" font-size="14.00">N14</text>
</g>
<!-- N2&#45;&gt;N14 -->
<g id="edge16" class="edge">
<title>N2&#45;&gt;N14</title>
<path fill="none" stroke="black" d="M184.07,-100.5C203.14,-96.3 229.27,-94.38 246,-108.82 265.25,-125.44 255.93,-197.71 264,-221.82 266.66,-229.79 270.53,-238.01 274.47,-245.39"/>
<polygon fill="black" stroke="black" points="271.47,-247.2 279.41,-254.21 277.58,-243.77 271.47,-247.2"/>
<text text-anchor="middle" x="225" y="-112.62" font-family="Times,serif" font-size="14.00">(n1)p2</text>
</g>
<!-- N15 -->
<g id="node17" class="node">
<title>N15</title>
<ellipse fill="#63d297" stroke="#63d297" cx="291" cy="-389.82" rx="27" ry="18"/>
<text text-anchor="middle" x="291" y="-386.12" font-family="Times,serif" font-size="14.00">N15</text>
</g>
<!-- N2&#45;&gt;N15 -->
<g id="edge18" class="edge">
<title>N2&#45;&gt;N15</title>
<path fill="none" stroke="black" d="M162.36,-125.95C166.62,-152.79 177.74,-203.61 204,-237.82 217.66,-255.62 233.65,-247.1 246,-265.82 270.14,-302.43 243.95,-323.83 264,-362.82 264.92,-364.6 265.99,-366.35 267.16,-368.03"/>
<polygon fill="black" stroke="black" points="264.61,-370.45 273.68,-375.94 270.02,-365.99 264.61,-370.45"/>
<text text-anchor="middle" x="225" y="-269.62" font-family="Times,serif" font-size="14.00">(n10)t2</text>
</g>
<!-- N3&#45;&gt;N8 -->
<g id="edge21" class="edge">
<title>N3&#45;&gt;N8</title>
<path fill="none" stroke="black" d="M172.95,-351.62C177.71,-358.15 182.73,-366.01 186,-373.82 202.1,-412.25 178.14,-433.16 204,-465.82 216.72,-481.89 233.49,-468.6 246,-484.82 275.19,-522.66 242.47,-548.16 264,-590.82 264.9,-592.61 265.96,-594.36 267.13,-596.05"/>
<polygon fill="black" stroke="black" points="264.58,-598.45 273.63,-603.96 269.99,-594.01 264.58,-598.45"/>
<text text-anchor="middle" x="225" y="-488.62" font-family="Times,serif" font-size="14.00">(n4)p7</text>
</g>
<!-- N3&#45;&gt;N11 -->
<g id="edge20" class="edge">
<title>N3&#45;&gt;N11</title>
<path fill="none" stroke="black" d="M162.55,-317.75C168.1,-281.27 182.54,-200.92 204,-184.82 219.38,-173.29 240.86,-175.77 258.5,-181.15"/>
<polygon fill="black" stroke="black" points="257.78,-184.61 268.37,-184.57 260.07,-177.99 257.78,-184.61"/>
<text text-anchor="middle" x="225" y="-188.62" font-family="Times,serif" font-size="14.00">(n5)p1</text>
</g>
<!-- N3&#45;&gt;N13 -->
<g id="edge19" class="edge">
<title>N3&#45;&gt;N13</title>
<path fill="none" stroke="black" d="M161.98,-317.63C168.21,-261.97 187.89,-96.68 204,-78.82 216.38,-65.1 235.89,-58.95 253.2,-56.3"/>
<polygon fill="black" stroke="black" points="254.09,-59.72 263.61,-55.07 253.26,-52.77 254.09,-59.72"/>
<text text-anchor="middle" x="225" y="-82.62" font-family="Times,serif" font-size="14.00">(n8)p8</text>
</g>
<!-- N16 -->
<g id="node18" class="node">
<title>N16</title>
<ellipse fill="#63d297" stroke="#63d297" cx="291" cy="-335.82" rx="27" ry="18"/>
<text text-anchor="middle" x="291" y="-332.12" font-family="Times,serif" font-size="14.00">N16</text>
</g>
<!-- N3&#45;&gt;N16 -->
<g id="edge22" class="edge">
<title>N3&#45;&gt;N16</title>
<path fill="none" stroke="black" d="M186.31,-335.82C205.69,-335.82 232.29,-335.82 253.7,-335.82"/>
<polygon fill="black" stroke="black" points="253.73,-339.32 263.73,-335.82 253.73,-332.32 253.73,-339.32"/>
<text text-anchor="middle" x="225" y="-339.62" font-family="Times,serif" font-size="14.00">(n1)p2</text>
</g>
<!-- N4&#45;&gt;N7 -->
<g id="edge24" class="edge">
<title>N4&#45;&gt;N7</title>
<path fill="none" stroke="black" d="M161.38,-544.11C165.43,-593.63 178.62,-729.03 204,-764.82 216.44,-782.36 231.33,-773.11 246,-788.82 247.23,-790.14 264.91,-827.06 277.48,-853.46"/>
<polygon fill="black" stroke="black" points="274.39,-855.1 281.84,-862.63 280.71,-852.09 274.39,-855.1"/>
<text text-anchor="middle" x="225" y="-792.62" font-family="Times,serif" font-size="14.00">(n4)p7</text>
</g>
<!-- N4&#45;&gt;N12 -->
<g id="edge23" class="edge">
<title>N4&#45;&gt;N12</title>
<path fill="none" stroke="black" d="M185.49,-521.39C202.95,-517.86 226.41,-512.11 246,-503.82 251.71,-501.41 257.55,-498.32 263.03,-495.11"/>
<polygon fill="black" stroke="black" points="265.15,-497.91 271.82,-489.68 261.48,-491.96 265.15,-497.91"/>
<text text-anchor="middle" x="225" y="-520.62" font-family="Times,serif" font-size="14.00">(n5)p1</text>
</g>
<!-- N4&#45;&gt;N15 -->
<g id="edge25" class="edge">
<title>N4&#45;&gt;N15</title>
<path fill="none" stroke="black" d="M169.91,-509.13C174.77,-500.91 180.71,-490.86 186,-481.82 194.05,-468.08 192.59,-461.95 204,-450.82 219.24,-435.97 228.52,-439.96 246,-427.82 253.11,-422.89 260.4,-416.99 266.94,-411.34"/>
<polygon fill="black" stroke="black" points="269.62,-413.65 274.77,-404.39 264.97,-408.41 269.62,-413.65"/>
<text text-anchor="middle" x="225" y="-454.62" font-family="Times,serif" font-size="14.00">(n8)p8</text>
</g>
<!-- N17 -->
<g id="node19" class="node">
<title>N17</title>
<ellipse fill="#63d297" stroke="#63d297" cx="291" cy="-563.82" rx="27" ry="18"/>
<text text-anchor="middle" x="291" y="-560.12" font-family="Times,serif" font-size="14.00">N17</text>
</g>
<!-- N4&#45;&gt;N17 -->
<g id="edge26" class="edge">
<title>N4&#45;&gt;N17</title>
<path fill="none" stroke="black" d="M168.4,-542.71C175.82,-555.52 187.94,-572.2 204,-579.82 221.31,-588.05 242.46,-584.27 259.45,-578.33"/>
<polygon fill="black" stroke="black" points="260.86,-581.54 268.92,-574.66 258.33,-575.01 260.86,-581.54"/>
<text text-anchor="middle" x="225" y="-587.62" font-family="Times,serif" font-size="14.00">(n1)p2</text>
</g>
<!-- N5&#45;&gt;N6 -->
<g id="edge27" class="edge">
<title>N5&#45;&gt;N6</title>
<path fill="none" stroke="black" d="M171.71,-470.71C177,-478.74 182.78,-488.86 186,-498.82 199.39,-540.23 178.75,-658.38 204,-693.82 215.89,-710.51 231.14,-698.72 246,-712.82 262.68,-728.65 274.19,-752.2 281.23,-770.5"/>
<polygon fill="black" stroke="black" points="278,-771.84 284.7,-780.05 284.58,-769.45 278,-771.84"/>
<text text-anchor="middle" x="225" y="-716.62" font-family="Times,serif" font-size="14.00">(n4)p7</text>
</g>
<!-- N5&#45;&gt;N14 -->
<g id="edge30" class="edge">
<title>N5&#45;&gt;N14</title>
<path fill="none" stroke="black" d="M176.4,-440.97C180.09,-437.08 183.61,-432.6 186,-427.82 208.35,-383.12 174.95,-357.49 204,-316.82 216.51,-299.3 237.81,-287.84 256.08,-280.74"/>
<polygon fill="black" stroke="black" points="257.35,-284 265.57,-277.32 254.97,-277.42 257.35,-284"/>
<text text-anchor="middle" x="225" y="-320.62" font-family="Times,serif" font-size="14.00">(n8)p8</text>
</g>
<!-- N5&#45;&gt;N16 -->
<g id="edge28" class="edge">
<title>N5&#45;&gt;N16</title>
<path fill="none" stroke="black" d="M175.74,-440.6C179.44,-436.72 183.14,-432.33 186,-427.82 198,-408.95 189.13,-397.53 204,-380.82 211.92,-371.93 237.31,-359.14 258.47,-349.46"/>
<polygon fill="black" stroke="black" points="260.13,-352.56 267.81,-345.26 257.26,-346.17 260.13,-352.56"/>
<text text-anchor="middle" x="225" y="-384.62" font-family="Times,serif" font-size="14.00">(n15)t1</text>
</g>
<!-- N5&#45;&gt;N17 -->
<g id="edge29" class="edge">
<title>N5&#45;&gt;N17</title>
<path fill="none" stroke="black" d="M170.2,-471.36C175.13,-479.53 181.04,-489.6 186,-498.82 194.66,-514.93 190.21,-523.82 204,-535.82 217.93,-547.95 237.2,-554.84 253.98,-558.75"/>
<polygon fill="black" stroke="black" points="253.53,-562.23 264.03,-560.82 254.94,-555.38 253.53,-562.23"/>
<text text-anchor="middle" x="225" y="-559.62" font-family="Times,serif" font-size="14.00">(n10)t2</text>
</g>
<!-- N18 -->
<g id="node20" class="node">
<title>N18</title>
<ellipse fill="#63d297" stroke="#63d297" cx="423" cy="-845.82" rx="27" ry="18"/>
<text text-anchor="middle" x="423" y="-842.12" font-family="Times,serif" font-size="14.00">N18</text>
</g>
<!-- N6&#45;&gt;N18 -->
<g id="edge31" class="edge">
<title>N6&#45;&gt;N18</title>
<path fill="none" stroke="black" d="M310.66,-810.44C318.27,-815.16 327.31,-820.23 336,-823.82 352.12,-830.49 370.8,-835.56 386.63,-839.15"/>
<polygon fill="black" stroke="black" points="386.04,-842.6 396.56,-841.29 387.52,-835.76 386.04,-842.6"/>
<text text-anchor="middle" x="357" y="-840.62" font-family="Times,serif" font-size="14.00">(n10)t2</text>
</g>
<!-- N19 -->
<g id="node21" class="node">
<title>N19</title>
<ellipse fill="#63d297" stroke="#63d297" cx="423" cy="-617.82" rx="27" ry="18"/>
<text text-anchor="middle" x="423" y="-614.12" font-family="Times,serif" font-size="14.00">N19</text>
</g>
<!-- N6&#45;&gt;N19 -->
<g id="edge32" class="edge">
<title>N6&#45;&gt;N19</title>
<path fill="none" stroke="black" d="M311.34,-785.69C335.19,-770.58 373.19,-746 378,-739.82 389.69,-724.82 405.11,-676.51 414.24,-645.37"/>
<polygon fill="black" stroke="black" points="417.67,-646.12 417.09,-635.54 410.95,-644.17 417.67,-646.12"/>
<text text-anchor="middle" x="357" y="-772.62" font-family="Times,serif" font-size="14.00">(n15)t1</text>
</g>
<!-- N7&#45;&gt;N18 -->
<g id="edge33" class="edge">
<title>N7&#45;&gt;N18</title>
<path fill="none" stroke="black" d="M311.92,-891.64C329.89,-900.66 356.68,-909.95 378,-899.82 390.67,-893.8 400.89,-882.15 408.28,-871.21"/>
<polygon fill="black" stroke="black" points="411.26,-873.04 413.6,-862.71 405.33,-869.33 411.26,-873.04"/>
<text text-anchor="middle" x="357" y="-907.62" font-family="Times,serif" font-size="14.00">(n1)p2</text>
</g>
<!-- N20 -->
<g id="node22" class="node">
<title>N20</title>
<ellipse fill="#63d297" stroke="#63d297" cx="423" cy="-731.82" rx="27" ry="18"/>
<text text-anchor="middle" x="423" y="-728.12" font-family="Times,serif" font-size="14.00">N20</text>
</g>
<!-- N7&#45;&gt;N20 -->
<g id="edge34" class="edge">
<title>N7&#45;&gt;N20</title>
<path fill="none" stroke="black" d="M318,-878.77C336.86,-876.67 361.8,-870.95 378,-855.82 385.28,-849.03 403.07,-793.91 413.67,-759.49"/>
<polygon fill="black" stroke="black" points="417.13,-760.13 416.7,-749.54 410.44,-758.08 417.13,-760.13"/>
<text text-anchor="middle" x="357" y="-878.62" font-family="Times,serif" font-size="14.00">(n5)p1</text>
</g>
<!-- N8&#45;&gt;N19 -->
<g id="edge35" class="edge">
<title>N8&#45;&gt;N19</title>
<path fill="none" stroke="black" d="M318.31,-617.82C337.69,-617.82 364.29,-617.82 385.7,-617.82"/>
<polygon fill="black" stroke="black" points="385.73,-621.32 395.73,-617.82 385.73,-614.32 385.73,-621.32"/>
<text text-anchor="middle" x="357" y="-621.62" font-family="Times,serif" font-size="14.00">(n1)p2</text>
</g>
<!-- N21 -->
<g id="node23" class="node">
<title>N21</title>
<ellipse fill="#63d297" stroke="#63d297" cx="423" cy="-541.82" rx="27" ry="18"/>
<text text-anchor="middle" x="423" y="-538.12" font-family="Times,serif" font-size="14.00">N21</text>
</g>
<!-- N8&#45;&gt;N21 -->
<g id="edge36" class="edge">
<title>N8&#45;&gt;N21</title>
<path fill="none" stroke="black" d="M307.76,-603.62C311.46,-599.73 315.15,-595.34 318,-590.82 330.15,-571.55 317.35,-555.91 336,-542.82 350.68,-532.53 370.51,-531.67 387.43,-533.66"/>
<polygon fill="black" stroke="black" points="387.1,-537.15 397.51,-535.21 388.16,-530.23 387.1,-537.15"/>
<text text-anchor="middle" x="357" y="-546.62" font-family="Times,serif" font-size="14.00">(n5)p1</text>
</g>
<!-- N9&#45;&gt;N20 -->
<g id="edge37" class="edge">
<title>N9&#45;&gt;N20</title>
<path fill="none" stroke="black" d="M314.69,-702.56C321.5,-705.05 329.01,-707.67 336,-709.82 352.67,-714.97 371.41,-719.87 387.14,-723.73"/>
<polygon fill="black" stroke="black" points="386.44,-727.16 396.98,-726.11 388.08,-720.36 386.44,-727.16"/>
<text text-anchor="middle" x="357" y="-724.62" font-family="Times,serif" font-size="14.00">(n10)t2</text>
</g>
<!-- N9&#45;&gt;N21 -->
<g id="edge38" class="edge">
<title>N9&#45;&gt;N21</title>
<path fill="none" stroke="black" d="M307.69,-679.32C315.83,-672.14 326.12,-663.59 336,-656.82 353.56,-644.81 363.76,-649.64 378,-633.82 391.86,-618.43 387.14,-609.55 396,-590.82 399.59,-583.24 403.75,-575.13 407.68,-567.74"/>
<polygon fill="black" stroke="black" points="410.8,-569.33 412.47,-558.86 404.64,-566.01 410.8,-569.33"/>
<text text-anchor="middle" x="357" y="-660.62" font-family="Times,serif" font-size="14.00">(n15)t1</text>
</g>
<!-- N22 -->
<g id="node24" class="node">
<title>N22</title>
<ellipse fill="#63d297" stroke="#63d297" cx="423" cy="-313.82" rx="27" ry="18"/>
<text text-anchor="middle" x="423" y="-310.12" font-family="Times,serif" font-size="14.00">N22</text>
</g>
<!-- N10&#45;&gt;N22 -->
<g id="edge39" class="edge">
<title>N10&#45;&gt;N22</title>
<path fill="none" stroke="black" d="M302.56,-139.56C307.57,-147.88 313.45,-158.2 318,-167.82 327.73,-188.43 320.43,-199.19 336,-215.82 350,-230.78 362.92,-220.95 378,-234.82 393.55,-249.13 404.91,-270.23 412.19,-287.02"/>
<polygon fill="black" stroke="black" points="408.97,-288.41 416,-296.33 415.45,-285.75 408.97,-288.41"/>
<text text-anchor="middle" x="357" y="-238.62" font-family="Times,serif" font-size="14.00">(n10)t2</text>
</g>
<!-- N23 -->
<g id="node25" class="node">
<title>N23</title>
<ellipse fill="#63d297" stroke="#63d297" cx="423" cy="-85.82" rx="27" ry="18"/>
<text text-anchor="middle" x="423" y="-82.12" font-family="Times,serif" font-size="14.00">N23</text>
</g>
<!-- N10&#45;&gt;N23 -->
<g id="edge40" class="edge">
<title>N10&#45;&gt;N23</title>
<path fill="none" stroke="black" d="M305.86,-107.32C313.82,-99.58 324.5,-91.01 336,-86.82 351.73,-81.1 370.18,-80.2 385.95,-81"/>
<polygon fill="black" stroke="black" points="386.14,-84.52 396.37,-81.78 386.66,-77.54 386.14,-84.52"/>
<text text-anchor="middle" x="357" y="-90.62" font-family="Times,serif" font-size="14.00">(n15)t1</text>
</g>
<!-- N11&#45;&gt;N21 -->
<g id="edge41" class="edge">
<title>N11&#45;&gt;N21</title>
<path fill="none" stroke="black" d="M302.9,-211.34C308.39,-220.52 314.6,-232.38 318,-243.82 330.71,-286.6 310.15,-407.45 336,-443.82 347.87,-460.52 362.92,-448.95 378,-462.82 393.55,-477.13 404.91,-498.23 412.19,-515.02"/>
<polygon fill="black" stroke="black" points="408.97,-516.41 416,-524.33 415.45,-513.75 408.97,-516.41"/>
<text text-anchor="middle" x="357" y="-466.62" font-family="Times,serif" font-size="14.00">(n4)p7</text>
</g>
<!-- N11&#45;&gt;N23 -->
<g id="edge42" class="edge">
<title>N11&#45;&gt;N23</title>
<path fill="none" stroke="black" d="M312.73,-184.04C330.99,-173.99 357.76,-157.87 378,-139.82 387.77,-131.11 397.15,-120.11 404.72,-110.31"/>
<polygon fill="black" stroke="black" points="407.68,-112.2 410.87,-102.1 402.07,-108.01 407.68,-112.2"/>
<text text-anchor="middle" x="357" y="-173.62" font-family="Times,serif" font-size="14.00">(n8)p8</text>
</g>
<!-- N12&#45;&gt;N20 -->
<g id="edge43" class="edge">
<title>N12&#45;&gt;N20</title>
<path fill="none" stroke="black" d="M300.81,-493.69C306.58,-505.47 313.81,-521.73 318,-536.82 334.19,-595.15 299.89,-623.25 336,-671.82 348.22,-688.27 360.95,-679.47 378,-690.82 385.87,-696.07 393.68,-702.73 400.48,-709.15"/>
<polygon fill="black" stroke="black" points="398.37,-711.98 407.96,-716.48 403.27,-706.98 398.37,-711.98"/>
<text text-anchor="middle" x="357" y="-694.62" font-family="Times,serif" font-size="14.00">(n4)p7</text>
</g>
<!-- N12&#45;&gt;N22 -->
<g id="edge44" class="edge">
<title>N12&#45;&gt;N22</title>
<path fill="none" stroke="black" d="M304.33,-460.88C312.58,-450.88 324.08,-438.17 336,-428.82 352.75,-415.69 363.76,-421.64 378,-405.82 391.86,-390.43 387.14,-381.55 396,-362.82 399.59,-355.24 403.75,-347.13 407.68,-339.74"/>
<polygon fill="black" stroke="black" points="410.8,-341.33 412.47,-330.86 404.64,-338.01 410.8,-341.33"/>
<text text-anchor="middle" x="357" y="-432.62" font-family="Times,serif" font-size="14.00">(n8)p8</text>
</g>
<!-- N13&#45;&gt;N23 -->
<g id="edge46" class="edge">
<title>N13&#45;&gt;N23</title>
<path fill="none" stroke="black" d="M316.09,-47.98C333.76,-44.19 358.03,-41.54 378,-48.82 386.49,-51.92 394.48,-57.46 401.26,-63.32"/>
<polygon fill="black" stroke="black" points="398.94,-65.93 408.62,-70.22 403.73,-60.83 398.94,-65.93"/>
<text text-anchor="middle" x="357" y="-52.62" font-family="Times,serif" font-size="14.00">(n5)p1</text>
</g>
<!-- N24 -->
<g id="node26" class="node">
<title>N24</title>
<ellipse fill="#63d297" stroke="#63d297" cx="423" cy="-199.82" rx="27" ry="18"/>
<text text-anchor="middle" x="423" y="-196.12" font-family="Times,serif" font-size="14.00">N24</text>
</g>
<!-- N13&#45;&gt;N24 -->
<g id="edge45" class="edge">
<title>N13&#45;&gt;N24</title>
<path fill="none" stroke="black" d="M304.16,-70.73C312.34,-80.63 323.82,-93.1 336,-101.82 352.66,-113.75 362.92,-106.95 378,-120.82 393.55,-135.13 404.91,-156.23 412.19,-173.02"/>
<polygon fill="black" stroke="black" points="408.97,-174.41 416,-182.33 415.45,-171.75 408.97,-174.41"/>
<text text-anchor="middle" x="357" y="-124.62" font-family="Times,serif" font-size="14.00">(n1)p2</text>
</g>
<!-- N14&#45;&gt;N24 -->
<g id="edge47" class="edge">
<title>N14&#45;&gt;N24</title>
<path fill="none" stroke="black" d="M300.29,-253.79C309.82,-235.02 325.48,-206.72 336,-200.82 351.17,-192.32 370.34,-191.35 386.73,-192.82"/>
<polygon fill="black" stroke="black" points="386.68,-196.34 397.03,-194.08 387.53,-189.39 386.68,-196.34"/>
<text text-anchor="middle" x="357" y="-204.62" font-family="Times,serif" font-size="14.00">(n15)t1</text>
</g>
<!-- N25 -->
<g id="node27" class="node">
<title>N25</title>
<ellipse fill="#63d297" stroke="#63d297" cx="423" cy="-389.82" rx="27" ry="18"/>
<text text-anchor="middle" x="423" y="-386.12" font-family="Times,serif" font-size="14.00">N25</text>
</g>
<!-- N14&#45;&gt;N25 -->
<g id="edge48" class="edge">
<title>N14&#45;&gt;N25</title>
<path fill="none" stroke="black" d="M303.22,-287.05C313.69,-301.97 328.75,-322.8 336,-329.82 353.26,-346.54 375.58,-361.97 393.16,-373"/>
<polygon fill="black" stroke="black" points="391.51,-376.09 401.87,-378.34 395.18,-370.13 391.51,-376.09"/>
<text text-anchor="middle" x="357" y="-365.62" font-family="Times,serif" font-size="14.00">(n10)t2</text>
</g>
<!-- N15&#45;&gt;N22 -->
<g id="edge49" class="edge">
<title>N15&#45;&gt;N22</title>
<path fill="none" stroke="black" d="M307.76,-375.62C311.46,-371.73 315.15,-367.34 318,-362.82 330.15,-343.55 317.35,-327.91 336,-314.82 350.68,-304.53 370.51,-303.67 387.43,-305.66"/>
<polygon fill="black" stroke="black" points="387.1,-309.15 397.51,-307.21 388.16,-302.23 387.1,-309.15"/>
<text text-anchor="middle" x="357" y="-318.62" font-family="Times,serif" font-size="14.00">(n5)p1</text>
</g>
<!-- N15&#45;&gt;N25 -->
<g id="edge50" class="edge">
<title>N15&#45;&gt;N25</title>
<path fill="none" stroke="black" d="M318.31,-389.82C337.69,-389.82 364.29,-389.82 385.7,-389.82"/>
<polygon fill="black" stroke="black" points="385.73,-393.32 395.73,-389.82 385.73,-386.32 385.73,-393.32"/>
<text text-anchor="middle" x="357" y="-393.62" font-family="Times,serif" font-size="14.00">(n1)p2</text>
</g>
<!-- N16&#45;&gt;N19 -->
<g id="edge52" class="edge">
<title>N16&#45;&gt;N19</title>
<path fill="none" stroke="black" d="M308.63,-349.56C312.31,-353.46 315.78,-357.97 318,-362.82 354.23,-441.96 292.24,-482.59 336,-557.82 348.27,-578.92 371.28,-594.38 390.41,-604.31"/>
<polygon fill="black" stroke="black" points="388.9,-607.47 399.42,-608.75 391.99,-601.19 388.9,-607.47"/>
<text text-anchor="middle" x="357" y="-599.62" font-family="Times,serif" font-size="14.00">(n4)p7</text>
</g>
<!-- N16&#45;&gt;N24 -->
<g id="edge51" class="edge">
<title>N16&#45;&gt;N24</title>
<path fill="none" stroke="black" d="M304.25,-319.84C312.65,-309.35 324.34,-295.63 336,-284.82 353.02,-269.05 361.21,-269.83 378,-253.82 387.48,-244.79 396.81,-233.74 404.42,-223.99"/>
<polygon fill="black" stroke="black" points="407.35,-225.92 410.63,-215.84 401.79,-221.67 407.35,-225.92"/>
<text text-anchor="middle" x="357" y="-288.62" font-family="Times,serif" font-size="14.00">(n8)p8</text>
</g>
<!-- N17&#45;&gt;N18 -->
<g id="edge54" class="edge">
<title>N17&#45;&gt;N18</title>
<path fill="none" stroke="black" d="M308.63,-577.56C312.31,-581.46 315.78,-585.97 318,-590.82 336.11,-630.39 310.75,-750.38 336,-785.82 347.89,-802.51 360.95,-793.47 378,-804.82 385.87,-810.07 393.68,-816.73 400.48,-823.15"/>
<polygon fill="black" stroke="black" points="398.37,-825.98 407.96,-830.48 403.27,-820.98 398.37,-825.98"/>
<text text-anchor="middle" x="357" y="-808.62" font-family="Times,serif" font-size="14.00">(n4)p7</text>
</g>
<!-- N17&#45;&gt;N25 -->
<g id="edge53" class="edge">
<title>N17&#45;&gt;N25</title>
<path fill="none" stroke="black" d="M304.25,-547.84C312.65,-537.35 324.34,-523.63 336,-512.82 353.02,-497.05 363.22,-499.71 378,-481.82 393.94,-462.53 405.69,-436.49 413.02,-417.04"/>
<polygon fill="black" stroke="black" points="416.35,-418.13 416.45,-407.54 409.76,-415.76 416.35,-418.13"/>
<text text-anchor="middle" x="357" y="-516.62" font-family="Times,serif" font-size="14.00">(n8)p8</text>
</g>
</g>
</svg>
